Coordinates
version=1
nRows=65
nColumns=7
inDegrees=yes

"Units are S.I. units (second, meters, Newtons, ...)"
"If the header above contains a line with 'inDegrees', this indicates whether rotational values are in degrees (yes) or radians (no)."

endheader
time	hip_flexion_r	hip_adduction_r	hip_rotation_r	knee_angle_r	ankle_angle_r	subtalar_angle_r
12.65	31.84285474	-4.4300242	-2.64631822	8.75728573	-2.2012203	-0.5996643
12.655	31.61895024	-4.37442484	-2.621208	9.47723331	-2.43715121	-1.04056044
12.66	31.36478677	-4.33362607	-2.61711758	10.13355401	-2.68967963	-1.54151398
12.665	31.12100329	-4.19289358	-2.495549	10.47951392	-3.88442478	-3.20234163
12.67	30.79649373	-4.1855057	-2.67648199	11.01739243	-4.25495312	-3.56289169
12.675	30.47861293	-4.135776	-3.09469549	11.54584443	-4.83895621	-4.15012164
12.68	30.22002834	-4.00038901	-3.52068591	12.00761706	-5.6767061	-4.84091099
12.685	30.1275678	-3.81710299	-3.57929908	12.3446449	-6.85369862	-5.97197221
12.69	30.09475976	-3.7084875	-4.02071307	13.14543039	-7.24291849	-5.78396654
12.695	29.9053712	-3.45434024	-4.18057543	13.80246346	-7.48771775	-5.79713044
12.7	29.83376107	-3.1953581	-4.38424372	14.56712682	-7.58349161	-5.71001575
12.705	30.02619585	-3.05564343	-4.76924377	15.47226098	-7.43137036	-5.1691964
12.71	29.75880854	-2.74972585	-4.91061756	16.21895415	-7.52988236	-5.22411206
12.715	29.46264667	-2.56585399	-4.99033578	16.9236558	-7.71503306	-5.26126288
12.72	29.92499342	-2.3537986	-5.32802749	17.87623834	-7.70176513	-5.11820035
12.725	29.87885974	-2.10153486	-5.40511658	18.72964451	-7.12360497	-4.63180236
12.73	29.79457586	-1.76451835	-5.31299033	19.3434789	-7.10053792	-4.88446004
12.735	29.51449943	-1.31970912	-5.23940924	19.88685498	-6.91602966	-4.99660993
12.74	29.33989527	-0.97335298	-5.27173939	20.46996151	-6.68368508	-5.19677089
12.745	29.14637375	-0.63625577	-5.28895133	20.96074087	-6.38784488	-5.42039407
12.75	28.87512248	-0.31871214	-5.29953243	21.38663828	-6.0845779	-5.6957914
12.755	28.41787405	0.05827137	-5.34440835	21.72122655	-5.80191649	-5.91256939
12.76	27.95538349	0.41084833	-5.36605623	21.99029109	-5.54257947	-6.06327757
12.765	27.5505421	0.67011492	-5.38036089	22.1815274	-5.24053616	-6.20121632
12.77	27.05735425	0.94255031	-5.45124482	22.32559892	-4.97125369	-6.24802131
12.775	26.70264411	1.11313123	-5.58743023	22.39059238	-4.65878642	-6.26904839
12.78	26.38794738	1.25386037	-5.59822391	22.63351542	-3.92915927	-5.96726756
12.785	25.78071463	1.46644824	-5.74668838	22.57983523	-3.63838847	-5.89297116
12.79	25.30030932	1.61849776	-5.85484048	22.50881474	-3.32472192	-5.88997928
12.795	24.84500471	1.73433452	-5.93754328	22.41758559	-3.02068281	-5.86317661
12.8	24.39877905	1.80011482	-5.94878565	22.32302713	-2.68104631	-5.80139237
12.805	23.77522343	1.71920644	-5.77344454	22.17712608	-2.43954438	-5.75994507
12.81	23.36687657	1.84399216	-6.16335372	21.92423949	-2.16935169	-5.68655272
12.815	23.02428875	1.83518885	-6.16829117	21.76048768	-1.97246085	-5.63162743
12.82	22.44977361	1.62918799	-6.12099577	21.59164939	-1.87164552	-5.59304326
12.825	22.14101371	1.75332266	-6.26040576	21.32005215	-1.51341814	-5.4326728
12.83	21.6521166	1.76835979	-6.33006778	21.1328986	-1.20461773	-5.20688556
12.835	21.09780821	1.61424597	-6.30757015	20.98225513	-1.12082036	-5.17093736
12.84	20.72917505	1.68598131	-6.26992203	20.58708596	-0.80423753	-4.93612651
12.845	20.207758	1.59301968	-6.28018404	20.47873054	-0.70500588	-4.90636705
12.85	19.69500403	1.49870204	-6.26821874	20.28633885	-0.53242351	-4.83075581
12.855	19.37089673	1.60727251	-6.37049441	19.91668023	-0.07150367	-4.22360645
12.86	18.87192301	1.59716711	-6.36658518	19.74174939	0.04295598	-4.14326932
12.865	18.40580726	1.83537292	-6.2566352	19.20198135	0.30639262	-4.08876307
12.87	17.92846774	1.809451	-6.33343428	19.0266586	0.43232067	-4.00659872
12.875	17.32870583	1.75098243	-6.41581173	18.66003853	0.92323289	-3.22000934
12.88	16.87565383	1.69176341	-6.39823255	18.40298512	1.06247329	-3.12663392
12.885	16.41032458	1.64173458	-6.42229437	18.08080123	1.17744231	-2.98052704
12.89	15.91401155	1.63212661	-6.42981795	17.7642894	1.29249059	-2.84347821
12.895	14.99920361	1.55143106	-6.18041964	17.14886845	1.3580939	-2.6403951
12.9	14.58677827	1.61977754	-6.27873212	16.96911973	1.48513446	-2.60638684
12.905	14.0456218	1.41035294	-6.0915528	16.42983138	1.51744832	-2.24740199
12.91	13.38844934	1.23108695	-5.93141665	15.98356337	1.58517295	-2.08167076
12.915	12.98709001	1.34289566	-6.09397398	15.8807472	1.76080835	-2.13946666
12.92	12.21470762	0.96101143	-5.86774289	15.30085219	1.80088189	-1.95062313
12.925	11.79391793	0.83712509	-5.79761638	14.98037606	1.8584114	-1.73494669
12.93	11.42180976	1.04684007	-5.87757335	14.92341642	2.01419677	-1.74083052
12.935	10.70693429	0.62135895	-5.53769507	14.33851751	2.00597976	-1.5257189
12.94	10.31955252	0.5016243	-5.4680948	14.03660027	2.07710925	-1.39960222
12.945	9.97185776	0.68984067	-5.54170015	13.94773208	2.2092059	-1.38606453
12.95	9.22839479	0.22788046	-5.23241554	13.44373445	2.18907222	-1.14480731
12.955	8.92771172	0.49291082	-5.36033606	13.42132421	2.36563743	-1.18816669
12.96	8.35400995	-0.01916195	-5.0951606	13.0229015	2.39425963	-0.99197024
12.965	7.93482743	-0.10487599	-4.97271583	12.77754473	2.44756763	-0.7739666
12.97	7.6019468	-0.1589532	-4.89178534	12.60200339	2.50356313	-0.69981188
